<svg width="120" height="120" viewBox="0 0 120 120" fill="none" xmlns="http://www.w3.org/2000/svg">
<path d="M97.5 37.5H15C14.0054 37.5 13.0516 37.8951 12.3483 38.5984C11.6451 39.3016 11.25 40.2554 11.25 41.25V63.75C11.2612 70.1343 12.6265 76.4436 15.2558 82.2614C17.8851 88.0791 21.7186 93.273 26.5031 97.5H15C14.0054 97.5 13.0516 97.8951 12.3483 98.5983C11.6451 99.3016 11.25 100.255 11.25 101.25C11.25 102.245 11.6451 103.198 12.3483 103.902C13.0516 104.605 14.0054 105 15 105H97.5C98.4946 105 99.4484 104.605 100.152 103.902C100.855 103.198 101.25 102.245 101.25 101.25C101.25 100.255 100.855 99.3016 100.152 98.5983C99.4484 97.8951 98.4946 97.5 97.5 97.5H85.9969C91.7401 92.4098 96.0952 85.9433 98.6531 78.7078C103.416 78.4143 107.888 76.3158 111.158 72.8398C114.427 69.3639 116.248 64.772 116.25 60V56.25C116.25 51.2772 114.275 46.5081 110.758 42.9917C107.242 39.4754 102.473 37.5 97.5 37.5ZM108.75 60C108.748 62.4262 107.962 64.7868 106.509 66.7297C105.056 68.6727 103.014 70.0938 100.688 70.7812C101.059 68.4559 101.247 66.1049 101.25 63.75V45.6469C103.443 46.4222 105.341 47.858 106.685 49.7569C108.028 51.6557 108.749 53.9242 108.75 56.25V60ZM52.5 26.25V11.25C52.5 10.2554 52.8951 9.30161 53.5984 8.59835C54.3016 7.89509 55.2554 7.5 56.25 7.5C57.2446 7.5 58.1984 7.89509 58.9016 8.59835C59.6049 9.30161 60 10.2554 60 11.25V26.25C60 27.2446 59.6049 28.1984 58.9016 28.9016C58.1984 29.6049 57.2446 30 56.25 30C55.2554 30 54.3016 29.6049 53.5984 28.9016C52.8951 28.1984 52.5 27.2446 52.5 26.25ZM67.5 26.25V11.25C67.5 10.2554 67.8951 9.30161 68.5983 8.59835C69.3016 7.89509 70.2554 7.5 71.25 7.5C72.2446 7.5 73.1984 7.89509 73.9017 8.59835C74.6049 9.30161 75 10.2554 75 11.25V26.25C75 27.2446 74.6049 28.1984 73.9017 28.9016C73.1984 29.6049 72.2446 30 71.25 30C70.2554 30 69.3016 29.6049 68.5983 28.9016C67.8951 28.1984 67.5 27.2446 67.5 26.25ZM37.5 26.25V11.25C37.5 10.2554 37.8951 9.30161 38.5984 8.59835C39.3016 7.89509 40.2554 7.5 41.25 7.5C42.2446 7.5 43.1984 7.89509 43.9016 8.59835C44.6049 9.30161 45 10.2554 45 11.25V26.25C45 27.2446 44.6049 28.1984 43.9016 28.9016C43.1984 29.6049 42.2446 30 41.25 30C40.2554 30 39.3016 29.6049 38.5984 28.9016C37.8951 28.1984 37.5 27.2446 37.5 26.25Z" fill="white"/>
</svg>
