<svg width="25" height="24" viewBox="0 0 25 24" fill="none" xmlns="http://www.w3.org/2000/svg">
<path d="M4.6251 11.25H20.3751C20.4746 11.25 20.5699 11.2105 20.6403 11.1402C20.7106 11.0698 20.7501 10.9745 20.7501 10.875V8.25C20.7502 8.15148 20.7308 8.05391 20.6932 7.96286C20.6556 7.87182 20.6003 7.78908 20.5307 7.71938L15.2807 2.46938C15.211 2.39975 15.1283 2.34454 15.0372 2.3069C14.9462 2.26926 14.8486 2.24992 14.7501 2.25H5.7501C5.35227 2.25 4.97074 2.40804 4.68944 2.68934C4.40813 2.97064 4.2501 3.35218 4.2501 3.75V10.875C4.2501 10.9745 4.28961 11.0698 4.35993 11.1402C4.43026 11.2105 4.52564 11.25 4.6251 11.25ZM14.7501 4.125L18.8751 8.25H14.7501V4.125ZM21.5001 14.2997C21.4833 14.4925 21.3943 14.6718 21.2508 14.8017C21.1074 14.9315 20.9202 15.0024 20.7267 15H18.5001V16.5H19.9748C20.1683 16.4974 20.3557 16.5682 20.4992 16.6981C20.6427 16.828 20.7317 17.0075 20.7482 17.2003C20.755 17.3029 20.7407 17.4058 20.7061 17.5026C20.6714 17.5994 20.6173 17.6881 20.5469 17.7631C20.4766 17.8381 20.3916 17.8978 20.2972 17.9385C20.2028 17.9793 20.101 18.0002 19.9982 18H18.5001V19.4747C18.5027 19.6682 18.4319 19.8556 18.302 19.9991C18.1721 20.1426 17.9926 20.2316 17.7998 20.2481C17.6972 20.2549 17.5943 20.2406 17.4975 20.206C17.4007 20.1713 17.312 20.1172 17.237 20.0468C17.162 19.9765 17.1023 19.8915 17.0615 19.7971C17.0208 19.7027 16.9999 19.6009 17.0001 19.4981V14.25C17.0001 14.0511 17.0791 13.8603 17.2198 13.7197C17.3604 13.579 17.5512 13.5 17.7501 13.5H20.7501C20.8529 13.4998 20.9547 13.5207 21.0491 13.5615C21.1435 13.6022 21.2285 13.6619 21.2988 13.7369C21.3691 13.8119 21.4233 13.9006 21.4579 13.9974C21.4926 14.0942 21.5069 14.1971 21.5001 14.2997ZM6.5001 13.5H5.0001C4.80118 13.5 4.61042 13.579 4.46977 13.7197C4.32911 13.8603 4.2501 14.0511 4.2501 14.25V19.4747C4.24701 19.6686 4.31757 19.8564 4.44754 20.0003C4.57752 20.1442 4.75722 20.2334 4.95041 20.25C5.053 20.2568 5.15589 20.2425 5.2527 20.2078C5.34951 20.1732 5.43817 20.119 5.51316 20.0487C5.58816 19.9784 5.64789 19.8934 5.68865 19.799C5.72941 19.7046 5.75032 19.6028 5.7501 19.5V18.75H6.44385C7.8726 18.75 9.08197 17.6325 9.12416 16.2047C9.13483 15.8534 9.07485 15.5035 8.94777 15.1759C8.8207 14.8482 8.62912 14.5494 8.38439 14.2971C8.13967 14.0449 7.84678 13.8444 7.5231 13.7074C7.19943 13.5705 6.85155 13.5 6.5001 13.5ZM6.46728 17.25H5.7501V15H6.5001C6.65745 14.9993 6.8132 15.0315 6.9573 15.0948C7.1014 15.158 7.23063 15.2507 7.33666 15.367C7.44268 15.4832 7.52313 15.6205 7.57281 15.7698C7.6225 15.9191 7.64031 16.0771 7.6251 16.2338C7.59236 16.5165 7.45579 16.777 7.24186 16.9648C7.02794 17.1526 6.7519 17.2542 6.46728 17.25ZM12.5001 13.5H11.0001C10.8012 13.5 10.6104 13.579 10.4698 13.7197C10.3291 13.8603 10.2501 14.0511 10.2501 14.25V19.5C10.2501 19.6989 10.3291 19.8897 10.4698 20.0303C10.6104 20.171 10.8012 20.25 11.0001 20.25H12.4363C14.2795 20.25 15.831 18.7987 15.8742 16.9566C15.885 16.5066 15.8058 16.059 15.6411 15.6402C15.4765 15.2213 15.2297 14.8396 14.9153 14.5175C14.6009 14.1954 14.2253 13.9395 13.8105 13.7648C13.3957 13.59 12.9502 13.5 12.5001 13.5ZM12.4542 18.75H11.7501V15H12.5001C12.7525 14.9998 13.0024 15.0506 13.2347 15.1493C13.467 15.248 13.677 15.3926 13.8521 15.5744C14.0272 15.7563 14.1638 15.9716 14.2536 16.2075C14.3435 16.4434 14.3848 16.695 14.3751 16.9472C14.3357 17.9616 13.4695 18.75 12.4542 18.75Z" fill="#DA1938"/>
</svg>
