<svg width="120" height="120" viewBox="0 0 120 120" fill="none" xmlns="http://www.w3.org/2000/svg">
<g id="Gift">
<path id="Vector" d="M101.25 33.7501H84.8063C84.9891 33.5954 85.1766 33.4454 85.3547 33.2813C86.7783 32.0165 87.9257 30.4716 88.725 28.7431C89.5243 27.0147 89.9583 25.1399 90 23.236C90.0616 21.1532 89.6968 19.0798 88.9281 17.1431C88.1594 15.2064 87.0029 13.4473 85.5298 11.9737C84.0566 10.5001 82.2978 9.34309 80.3613 8.5738C78.4248 7.8045 76.3515 7.43912 74.2688 7.50007C72.3641 7.5411 70.4884 7.97485 68.7591 8.77417C67.0298 9.57349 65.4841 10.7212 64.2188 12.1454C62.4679 14.1746 61.0445 16.4646 60 18.9329C58.9555 16.4646 57.5321 14.1746 55.7812 12.1454C54.5159 10.7212 52.9702 9.57349 51.2409 8.77417C49.5116 7.97485 47.6359 7.5411 45.7312 7.50007C43.6485 7.43912 41.5752 7.8045 39.6387 8.5738C37.7022 9.34309 35.9434 10.5001 34.4702 11.9737C32.9971 13.4473 31.8406 15.2064 31.0719 17.1431C30.3032 19.0798 29.9384 21.1532 30 23.236C30.0417 25.1399 30.4757 27.0147 31.275 28.7431C32.0743 30.4716 33.2217 32.0165 34.6453 33.2813C34.8234 33.436 35.0109 33.586 35.1938 33.7501H18.75C16.7609 33.7501 14.8532 34.5403 13.4467 35.9468C12.0402 37.3533 11.25 39.2609 11.25 41.2501V56.2501C11.25 58.2392 12.0402 60.1468 13.4467 61.5534C14.8532 62.9599 16.7609 63.7501 18.75 63.7501V93.7501C18.75 95.7392 19.5402 97.6468 20.9467 99.0534C22.3532 100.46 24.2609 101.25 26.25 101.25H54.375C54.8723 101.25 55.3492 101.053 55.7008 100.701C56.0525 100.349 56.25 99.8724 56.25 99.3751V56.2501H18.75V41.2501H56.25V56.2501H63.75V41.2501H101.25V56.2501H63.75V99.3751C63.75 99.8724 63.9475 100.349 64.2992 100.701C64.6508 101.053 65.1277 101.25 65.625 101.25H93.75C95.7391 101.25 97.6468 100.46 99.0533 99.0534C100.46 97.6468 101.25 95.7392 101.25 93.7501V63.7501C103.239 63.7501 105.147 62.9599 106.553 61.5534C107.96 60.1468 108.75 58.2392 108.75 56.2501V41.2501C108.75 39.2609 107.96 37.3533 106.553 35.9468C105.147 34.5403 103.239 33.7501 101.25 33.7501ZM39.6141 27.6563C38.9584 27.0626 38.4325 26.3397 38.0695 25.533C37.7065 24.7263 37.5142 23.8533 37.5047 22.9688C37.481 21.9324 37.6644 20.9017 38.0441 19.9371C38.4238 18.9725 38.9922 18.0933 39.716 17.3512C40.4398 16.6091 41.3045 16.0188 42.2593 15.6151C43.2141 15.2114 44.2399 15.0023 45.2766 15.0001H45.5063C46.3908 15.0096 47.2638 15.2019 48.0704 15.5649C48.8771 15.9279 49.6 16.4538 50.1938 17.1094C54.1266 21.5532 55.5141 28.9219 56.0016 33.4782C51.4266 32.9954 44.0625 31.6079 39.6141 27.6563ZM80.3953 27.6563C75.9469 31.5938 68.5641 32.9813 63.9891 33.4688C64.5469 28.5423 66.0938 21.3282 69.8438 17.1141C70.4375 16.4585 71.1604 15.9326 71.9671 15.5696C72.7737 15.2066 73.6467 15.0143 74.5312 15.0048H74.7609C75.7977 15.0112 76.8227 15.2246 77.7759 15.6323C78.7291 16.04 79.5914 16.6338 80.3121 17.3791C81.0329 18.1243 81.5977 19.0058 81.9734 19.9721C82.349 20.9384 82.5281 21.97 82.5 23.0063C82.4847 23.8848 82.2892 24.7509 81.9256 25.5507C81.5619 26.3506 81.0379 27.0673 80.3859 27.6563H80.3953Z" fill="white"/>
</g>
</svg>
