<svg width="450" height="91" viewBox="0 0 450 91" fill="none" xmlns="http://www.w3.org/2000/svg">
<path d="M427.027 16.3253C423.729 13.0273 418.382 13.0273 415.084 16.3253C411.786 19.6232 411.786 24.9703 415.084 28.2682L425.189 38.3738C426.875 40.0591 429.095 40.8832 431.304 40.846C433.513 40.8838 435.735 40.0597 437.42 38.3738L447.526 28.2682C450.824 24.9703 450.824 19.6233 447.526 16.3253C444.228 13.0274 438.881 13.0274 435.583 16.3253L431.305 20.6035L427.027 16.3253Z" fill="white"/>
<path d="M33.6881 79.3949C32.6986 79.7945 31.7472 80.099 30.8338 80.3083C29.9204 80.4986 29.0451 80.5937 28.2079 80.5937C25.5248 80.5937 23.4698 79.9563 22.0426 78.6814C20.6155 77.3874 19.9019 75.5322 19.9019 73.1155V66.8647H24.4688V72.6018C24.4688 73.9718 24.8398 75.0089 25.5819 75.7129C26.324 76.398 27.3801 76.7405 28.7502 76.7405C29.6255 76.7405 30.4723 76.6453 31.2905 76.455C32.1087 76.2457 32.8698 75.9508 33.5739 75.5702L33.6881 79.3949ZM33.0316 86.8446V66.8647H37.5984V86.8446H33.0316ZM40.3107 86.8446L49.216 66.8647H53.7828L62.7167 86.8446H57.8645L50.5575 69.2052H52.3842L45.0488 86.8446H40.3107ZM44.7633 82.5632L45.9907 79.0524H56.2661L57.5219 82.5632H44.7633ZM65.3663 86.8446V66.8647H69.9617V79.8802L79.495 66.8647H83.8335V86.8446H79.2666V73.8576L69.7333 86.8446H65.3663ZM74.5856 65.5802C72.6828 65.5802 71.2842 65.1997 70.3898 64.4385C69.5145 63.6774 69.0673 62.6023 69.0483 61.2132H72.2166C72.2356 61.8982 72.4354 62.4215 72.816 62.7831C73.2156 63.1256 73.8054 63.2968 74.5856 63.2968C75.3467 63.2968 75.9271 63.1256 76.3267 62.7831C76.7263 62.4215 76.9356 61.8982 76.9547 61.2132H80.1229C80.1039 62.6023 79.6472 63.6774 78.7529 64.4385C77.8585 65.1997 76.4694 65.5802 74.5856 65.5802Z" fill="white"/>
<rect x="105.73" y="79.5029" width="14.2714" height="7.73033" rx="3.86516" transform="rotate(-45 105.73 79.5029)" fill="white"/>
<rect x="106.439" y="69.4116" width="14.2714" height="7.73033" rx="3.86516" transform="rotate(45 106.439 69.4116)" fill="white"/>
<path d="M150.877 86.8446L144.655 77.2257L148.394 74.9708L156.129 86.8446H150.877ZM137.89 86.8446V66.8647H142.485V86.8446H137.89ZM141.144 78.7955V74.9423H148.108V78.7955H141.144ZM148.822 77.3684L144.569 76.8546L151.048 66.8647H155.929L148.822 77.3684ZM167.773 87.1871C166.194 87.1871 164.729 86.9302 163.378 86.4165C162.046 85.9027 160.885 85.1796 159.895 84.2472C158.925 83.3148 158.164 82.2207 157.612 80.9648C157.079 79.7089 156.813 78.3389 156.813 76.8546C156.813 75.3704 157.079 74.0004 157.612 72.7445C158.164 71.4886 158.934 70.3945 159.924 69.4621C160.913 68.5297 162.074 67.8066 163.406 67.2928C164.738 66.779 166.184 66.5222 167.745 66.5222C169.324 66.5222 170.77 66.779 172.083 67.2928C173.415 67.8066 174.566 68.5297 175.537 69.4621C176.526 70.3945 177.297 71.4886 177.849 72.7445C178.401 73.9813 178.676 75.3514 178.676 76.8546C178.676 78.3389 178.401 79.7184 177.849 80.9933C177.297 82.2492 176.526 83.3434 175.537 84.2758C174.566 85.1891 173.415 85.9027 172.083 86.4165C170.77 86.9302 169.333 87.1871 167.773 87.1871ZM167.745 83.2482C168.639 83.2482 169.457 83.096 170.199 82.7915C170.96 82.4871 171.626 82.0494 172.197 81.4786C172.768 80.9077 173.206 80.2322 173.51 79.452C173.834 78.6719 173.995 77.8061 173.995 76.8546C173.995 75.9032 173.834 75.0374 173.51 74.2572C173.206 73.4771 172.768 72.8016 172.197 72.2307C171.645 71.6599 170.989 71.2222 170.228 70.9177C169.467 70.6133 168.639 70.4611 167.745 70.4611C166.85 70.4611 166.023 70.6133 165.261 70.9177C164.519 71.2222 163.863 71.6599 163.292 72.2307C162.721 72.8016 162.274 73.4771 161.95 74.2572C161.646 75.0374 161.494 75.9032 161.494 76.8546C161.494 77.787 161.646 78.6528 161.95 79.452C162.274 80.2322 162.712 80.9077 163.263 81.4786C163.834 82.0494 164.5 82.4871 165.261 82.7915C166.023 83.096 166.85 83.2482 167.745 83.2482ZM192.799 85.5887C190.211 85.5887 188.014 85.2462 186.206 84.5612C184.417 83.8762 183.057 82.8867 182.124 81.5927C181.192 80.2798 180.726 78.6814 180.726 76.7976C180.726 74.9137 181.192 73.3249 182.124 72.0309C183.057 70.7179 184.417 69.719 186.206 69.0339C188.014 68.3489 190.211 68.0064 192.799 68.0064C192.837 68.0064 192.942 68.0064 193.113 68.0064C193.304 68.0064 193.484 68.0064 193.656 68.0064C193.846 68.0064 193.951 68.0064 193.97 68.0064C196.538 68.0064 198.708 68.3489 200.477 69.0339C202.266 69.719 203.617 70.7179 204.53 72.0309C205.444 73.3439 205.9 74.9328 205.9 76.7976C205.9 78.6433 205.444 80.2322 204.53 81.5642C203.636 82.8772 202.314 83.8762 200.563 84.5612C198.831 85.2462 196.71 85.5887 194.198 85.5887C194.141 85.5887 194.008 85.5887 193.798 85.5887C193.589 85.5887 193.38 85.5887 193.17 85.5887C192.98 85.5887 192.856 85.5887 192.799 85.5887ZM193.227 82.0209C193.285 82.0209 193.361 82.0209 193.456 82.0209C193.551 82.0209 193.618 82.0209 193.656 82.0209C195.406 82.0209 196.852 81.8306 197.994 81.45C199.155 81.0504 200.021 80.4701 200.592 79.7089C201.162 78.9287 201.448 77.9488 201.448 76.769C201.448 75.5892 201.153 74.6188 200.563 73.8576C199.973 73.0965 199.107 72.5352 197.966 72.1736C196.843 71.7931 195.425 71.6028 193.713 71.6028C193.675 71.6028 193.599 71.6028 193.484 71.6028C193.389 71.6028 193.304 71.6028 193.227 71.6028C191.42 71.6028 189.926 71.7835 188.746 72.1451C187.567 72.5066 186.682 73.0775 186.092 73.8576C185.502 74.6188 185.207 75.5988 185.207 76.7976C185.207 77.9963 185.521 78.9858 186.149 79.766C186.777 80.5271 187.681 81.098 188.86 81.4786C190.059 81.8401 191.515 82.0209 193.227 82.0209ZM191.201 87.7294V66.0084H195.454V87.7294H191.201ZM213.613 74.9137H223.232V78.5101H213.613V74.9137ZM213.955 83.134H224.83V86.8446H209.36V66.8647H224.459V70.5752H213.955V83.134Z" fill="white"/>
<rect x="245.492" y="79.5031" width="14.2714" height="7.73033" rx="3.86516" transform="rotate(-45 245.492 79.5031)" fill="white"/>
<rect x="246.201" y="69.4116" width="14.2714" height="7.73033" rx="3.86516" transform="rotate(45 246.201 69.4116)" fill="white"/>
<path d="M277.708 86.8446V66.8647H295.918V86.8446H291.323V69.5762L292.379 70.6323H281.247L282.303 69.5762V86.8446H277.708ZM310.433 87.1871C308.853 87.1871 307.388 86.9302 306.037 86.4165C304.705 85.9027 303.544 85.1796 302.555 84.2472C301.585 83.3148 300.823 82.2207 300.272 80.9648C299.739 79.7089 299.472 78.3389 299.472 76.8546C299.472 75.3704 299.739 74.0004 300.272 72.7445C300.823 71.4886 301.594 70.3945 302.584 69.4621C303.573 68.5297 304.734 67.8066 306.066 67.2928C307.398 66.779 308.844 66.5222 310.404 66.5222C311.984 66.5222 313.43 66.779 314.743 67.2928C316.075 67.8066 317.226 68.5297 318.196 69.4621C319.186 70.3945 319.957 71.4886 320.508 72.7445C321.06 73.9813 321.336 75.3514 321.336 76.8546C321.336 78.3389 321.06 79.7184 320.508 80.9933C319.957 82.2492 319.186 83.3434 318.196 84.2758C317.226 85.1891 316.075 85.9027 314.743 86.4165C313.43 86.9302 311.993 87.1871 310.433 87.1871ZM310.404 83.2482C311.299 83.2482 312.117 83.096 312.859 82.7915C313.62 82.4871 314.286 82.0494 314.857 81.4786C315.428 80.9077 315.865 80.2322 316.17 79.452C316.493 78.6719 316.655 77.8061 316.655 76.8546C316.655 75.9032 316.493 75.0374 316.17 74.2572C315.865 73.4771 315.428 72.8016 314.857 72.2307C314.305 71.6599 313.649 71.2222 312.887 70.9177C312.126 70.6133 311.299 70.4611 310.404 70.4611C309.51 70.4611 308.682 70.6133 307.921 70.9177C307.179 71.2222 306.522 71.6599 305.952 72.2307C305.381 72.8016 304.934 73.4771 304.61 74.2572C304.306 75.0374 304.153 75.9032 304.153 76.8546C304.153 77.787 304.306 78.6528 304.61 79.452C304.934 80.2322 305.371 80.9077 305.923 81.4786C306.494 82.0494 307.16 82.4871 307.921 82.7915C308.682 83.096 309.51 83.2482 310.404 83.2482ZM337.585 84.7895V70.6323H330.734L330.649 73.5437C330.592 74.7805 330.506 75.9508 330.392 77.0544C330.297 78.1581 330.144 79.1666 329.935 80.08C329.726 80.9743 329.45 81.7355 329.107 82.3634C328.784 82.9913 328.375 83.4385 327.88 83.7049L322.942 83.077C323.627 83.096 324.188 82.8581 324.626 82.3634C325.083 81.8687 325.444 81.1741 325.711 80.2798C325.977 79.3664 326.167 78.3008 326.282 77.083C326.415 75.8652 326.51 74.5427 326.567 73.1155L326.795 66.8647H342.151V84.7895H337.585ZM322.286 90.9833L322.314 83.077H344.949V90.9833H340.667V86.8446H326.567V90.9833H322.286ZM345.918 86.8446L354.823 66.8647H359.39L368.324 86.8446H363.472L356.165 69.2052H357.991L350.656 86.8446H345.918ZM350.371 82.5632L351.598 79.0524H361.873L363.129 82.5632H350.371ZM370.974 86.8446V66.8647H379.622C381.411 66.8647 382.952 67.1596 384.246 67.7495C385.54 68.3204 386.539 69.1481 387.243 70.2327C387.947 71.3173 388.299 72.6113 388.299 74.1145C388.299 75.5988 387.947 76.8832 387.243 77.9678C386.539 79.0524 385.54 79.8897 384.246 80.4796C382.952 81.0504 381.411 81.3359 379.622 81.3359H373.542L375.597 79.2522V86.8446H370.974ZM375.597 79.766L373.542 77.5682H379.365C380.792 77.5682 381.858 77.2638 382.562 76.6548C383.266 76.0459 383.618 75.1992 383.618 74.1145C383.618 73.0109 383.266 72.1546 382.562 71.5457C381.858 70.9368 380.792 70.6323 379.365 70.6323H373.542L375.597 68.4345V79.766ZM404.279 86.8446L398.057 77.2257L401.796 74.9708L409.531 86.8446H404.279ZM391.292 86.8446V66.8647H395.888V86.8446H391.292ZM394.546 78.7955V74.9423H401.51V78.7955H394.546ZM402.224 77.3684L397.971 76.8546L404.45 66.8647H409.331L402.224 77.3684ZM411.697 86.8446V66.8647H416.293V79.8802L425.826 66.8647H430.164V86.8446H425.597V73.8576L416.064 86.8446H411.697Z" fill="white"/>
<path fill-rule="evenodd" clip-rule="evenodd" d="M305.646 3.21797V47.2214C305.646 47.8782 306.178 48.4107 306.835 48.4107H317.538C318.195 48.4107 318.728 47.8782 318.728 47.2214V30.6409L330.267 47.8829C330.488 48.2127 330.859 48.4107 331.256 48.4107H342.787C343.712 48.4107 344.283 47.4004 343.806 46.6077L334.188 30.6409C337.756 29.9382 344.892 26.3039 344.892 17.389C344.892 6.24523 336.567 2.02869 329.728 2.02869H306.834C306.177 2.02869 305.646 2.56115 305.646 3.21797ZM318.728 12.5699V22.8101H327.053C329.729 22.8101 331.513 20.4007 331.513 17.3888C331.513 14.377 329.135 12.5699 325.567 12.5699H318.728Z" fill="white"/>
<path d="M175.717 47.2214V3.21797C175.717 2.56115 176.249 2.02869 176.906 2.02869H188.486C188.869 2.02869 189.229 2.21328 189.452 2.52456L207.233 27.3009V3.21797C207.233 2.56115 207.765 2.02869 208.422 2.02869H219.72C220.377 2.02869 220.909 2.56115 220.909 3.21797V47.2214C220.909 47.8782 220.377 48.4107 219.72 48.4107H207.843C207.46 48.4107 207.1 48.2261 206.877 47.9148L189.096 23.1384V47.2214C189.096 47.8782 188.564 48.4107 187.907 48.4107H176.906C176.249 48.4107 175.717 47.8782 175.717 47.2214Z" fill="white"/>
<path d="M44.631 14.221L35.159 18.2006C34.6064 18.4328 33.9738 18.2121 33.614 17.7327C32.3102 15.996 29.6175 13.7352 24.3803 13.7352C16.6499 13.7352 13.0821 18.8935 13.0821 24.9116C13.0821 30.9296 17.5419 35.8014 24.3803 35.8014C29.851 35.8014 32.6061 33.1267 33.2999 31.7893L26.1521 27.5497C25.791 27.3355 25.5696 26.9467 25.5696 26.5268V25.5277C25.5696 24.8709 26.0988 24.3384 26.7556 24.3384H47.572C48.2288 24.3384 48.7634 24.8713 48.7332 25.5274C48.1734 37.6591 39.0655 48.4106 24.3803 48.4106C9.21693 48.4106 0 36.3745 0 24.3384C0 12.3023 9.21693 0.839355 24.3803 0.839355C35.5465 0.839355 42.5309 8.12394 45.1941 12.6349C45.5406 13.2219 45.2594 13.957 44.631 14.221Z" fill="white"/>
<path d="M391.307 14.221L381.835 18.2006C381.282 18.4328 380.65 18.2121 380.29 17.7327C378.986 15.996 376.293 13.7352 371.056 13.7352C363.326 13.7352 359.758 18.8935 359.758 24.9116C359.758 30.9296 364.218 35.8014 371.056 35.8014C376.527 35.8014 379.282 33.1267 379.976 31.7893L372.828 27.5497C372.467 27.3355 372.245 26.9467 372.245 26.5268V25.5277C372.245 24.8709 372.775 24.3384 373.431 24.3384H394.248C394.905 24.3384 395.439 24.8713 395.409 25.5274C394.849 37.6591 385.741 48.4106 371.056 48.4106C355.893 48.4106 346.676 36.3745 346.676 24.3384C346.676 12.3023 355.893 0.839355 371.056 0.839355C382.222 0.839355 389.207 8.12394 391.87 12.6349C392.216 13.2219 391.935 13.957 391.307 14.221Z" fill="white"/>
<path d="M52.3289 2.02869C51.6721 2.02869 51.1396 2.56114 51.1396 3.21797V32.6583C51.1396 35.2804 54.4985 45.9161 67.4704 48.0404C68.5531 48.2788 69.94 48.4107 71.6816 48.4107C71.7721 48.4107 71.8623 48.4103 71.9521 48.4096C72.0419 48.4103 72.132 48.4107 72.2226 48.4107C73.9641 48.4107 75.351 48.2788 76.4337 48.0404C89.4056 45.9161 92.7645 35.2804 92.7645 32.6583V3.21797C92.7645 2.56114 92.232 2.02869 91.5752 2.02869H80.5914C79.9345 2.02869 79.4021 2.56115 79.4021 3.21797V30.908C79.4021 33.9546 74.9267 36.4517 72.2357 36.4598C72.2313 36.4567 72.2269 36.4536 72.2226 36.4505C72.1353 36.4538 72.045 36.4563 71.9521 36.4579C71.8591 36.4563 71.7689 36.4538 71.6816 36.4505C71.6772 36.4536 71.6728 36.4567 71.6685 36.4598C68.9775 36.4517 64.5021 33.9546 64.5021 30.908V3.21797C64.5021 2.56115 63.9696 2.02869 63.3128 2.02869H52.3289Z" fill="white"/>
<path d="M96.332 10.8839V3.21797C96.332 2.56115 96.8645 2.02869 97.5213 2.02869H134.984C135.641 2.02869 136.173 2.56115 136.173 3.21797V10.8839C136.173 11.5407 135.641 12.0732 134.984 12.0732H122.993V47.2214C122.993 47.8782 122.46 48.4107 121.803 48.4107H110.702C110.045 48.4107 109.512 47.8782 109.512 47.2214V12.0732H97.5213C96.8645 12.0732 96.332 11.5407 96.332 10.8839Z" fill="white"/>
<path d="M139.74 47.2214V3.21797C139.74 2.56115 140.273 2.02869 140.93 2.02869H170.067C170.724 2.02869 171.256 2.56114 171.256 3.21797V10.651C171.256 11.3078 170.724 11.8403 170.067 11.8403H152.822V20.1652H167.688C168.345 20.1652 168.878 20.6977 168.878 21.3545V28.1929C168.878 28.8497 168.345 29.3822 167.688 29.3822H152.822V38.3018H170.067C170.724 38.3018 171.256 38.8342 171.256 39.4911V47.2214C171.256 47.8782 170.724 48.4107 170.067 48.4107H140.93C140.273 48.4107 139.74 47.8782 139.74 47.2214Z" fill="white"/>
<path d="M269.372 47.2214V3.21797C269.372 2.56115 269.905 2.02869 270.561 2.02869H299.699C300.356 2.02869 300.888 2.56114 300.888 3.21797V10.651C300.888 11.3078 300.356 11.8403 299.699 11.8403H282.454V20.1652H297.32C297.977 20.1652 298.509 20.6977 298.509 21.3545V28.1929C298.509 28.8497 297.977 29.3822 297.32 29.3822H282.454V38.3018H299.699C300.356 38.3018 300.888 38.8342 300.888 39.4911V47.2214C300.888 47.8782 300.356 48.4107 299.699 48.4107H270.561C269.905 48.4107 269.372 47.8782 269.372 47.2214Z" fill="white"/>
<path fill-rule="evenodd" clip-rule="evenodd" d="M225.666 47.5187V3.21797C225.666 2.56115 226.194 2.02869 226.851 2.02869H250.641C253.614 2.02869 264.912 3.21797 264.912 13.0295C264.912 20.8788 259.957 24.0304 257.479 24.625C260.254 24.5259 265.804 26.6468 265.804 35.9232C265.804 45.1996 256.488 48.3116 251.83 48.708H226.855C226.198 48.708 225.666 48.1755 225.666 47.5187ZM239.045 19.5706V13.3269C239.045 12.67 239.577 12.1376 240.234 12.1376H246.181C249.154 12.1376 250.938 14.5161 250.938 16.5974C250.938 18.6786 248.262 20.7599 246.181 20.7599H240.234C239.577 20.7599 239.045 20.2274 239.045 19.5706ZM239.045 30.5715V36.8152C239.045 37.472 239.576 38.0045 240.233 38.0045H247.37C249.451 38.0045 252.127 35.9232 252.127 33.842C252.127 31.7608 250.343 29.3822 247.37 29.3822H240.233C239.576 29.3822 239.045 29.9147 239.045 30.5715Z" fill="white"/>
</svg>
